<svg xmlns="http://www.w3.org/2000/svg" xmlns:xlink="http://www.w3.org/1999/xlink" viewBox="0 0 100 125" version="1.1" x="0px" y="0px"><title>Tick 3.3</title><desc>Created with Sketch.</desc><g stroke="none" stroke-width="1" fill="none" fill-rule="evenodd"><g fill-rule="nonzero" fill="#00FF0A"><path d="M50,79.25 C33.8456711,79.25 20.75,66.1543289 20.75,50 C20.75,33.8456711 33.8456711,20.75 50,20.75 C66.1543289,20.75 79.25,33.8456711 79.25,50 C79.25,66.1543289 66.1543289,79.25 50,79.25 Z M41.2075838,50.6102014 L46.862316,58.2844809 L58.7086102,38.236906 C59.1300554,37.5236911 60.0498791,37.287165 60.763094,37.7086102 C61.4763089,38.1300554 61.712835,39.0498791 61.2913898,39.763094 L48.2913898,61.763094 C47.7444812,62.6886317 46.4301339,62.7552725 45.7924162,61.8897986 L38.7924162,52.3897986 C38.3009941,51.7228685 38.4432714,50.7838384 39.1102014,50.2924162 C39.7771315,49.8009941 40.7161616,49.9432714 41.2075838,50.6102014 Z M50,76.75 C64.7736171,76.75 76.75,64.7736171 76.75,50 C76.75,35.2263829 64.7736171,23.25 50,23.25 C35.2263829,23.25 23.25,35.2263829 23.25,50 C23.25,64.7736171 35.2263829,76.75 50,76.75 Z"/></g></g></svg>